<svg xmlns="http://www.w3.org/2000/svg" viewBox="0 0 1400 900" role="img" aria-labelledby="t d">
<title id="t">Encuentro profesional de mujeres empresarias</title>
<desc id="d">Ilustración abstracta de una reunión de networking y crecimiento empresarial.</desc>
<defs>
<linearGradient id="bg" x1="0" x2="1" y1="0" y2="1"><stop offset="0" stop-color="#fff8f4"/><stop offset="1" stop-color="#fff"/></linearGradient>
<linearGradient id="brand" x1="0" x2="1"><stop offset="0" stop-color="#C90058"/><stop offset=".58" stop-color="#F2386B"/><stop offset="1" stop-color="#FFB000"/></linearGradient>
<filter id="shadow" x="-20%" y="-20%" width="140%" height="140%"><feDropShadow dx="0" dy="24" stdDeviation="22" flood-color="#3b0826" flood-opacity=".16"/></filter>
</defs>
<rect width="1400" height="900" fill="url(#bg)"/>
<circle cx="1140" cy="120" r="220" fill="#ffb000" opacity=".13"/>
<circle cx="250" cy="750" r="280" fill="#c90058" opacity=".08"/>
<path d="M106 216 C240 95 431 100 555 201 C683 305 821 304 947 205 C1056 120 1242 112 1330 228" fill="none" stroke="url(#brand)" stroke-width="20" stroke-linecap="round" opacity=".35"/>
<g filter="url(#shadow)">
<rect x="210" y="225" width="980" height="520" rx="44" fill="#fff"/>
<rect x="260" y="290" width="880" height="330" rx="30" fill="#f7eef4"/>
<path d="M310 575 C405 458 475 515 546 438 C641 334 713 550 790 465 C856 391 914 353 1045 410" fill="none" stroke="url(#brand)" stroke-width="16" stroke-linecap="round"/>
<g transform="translate(340 330)">
<circle cx="0" cy="0" r="48" fill="#3b0826" opacity=".96"/><circle cx="-15" cy="-12" r="18" fill="#fff8f4" opacity=".22"/>
<rect x="-70" y="63" width="140" height="110" rx="46" fill="#C90058"/>
</g>
<g transform="translate(685 305)">
<circle cx="0" cy="0" r="52" fill="#ffb000"/><circle cx="18" cy="-8" r="16" fill="#fff" opacity=".26"/>
<rect x="-76" y="68" width="152" height="125" rx="50" fill="#3b0826"/>
</g>
<g transform="translate(1010 345)">
<circle cx="0" cy="0" r="46" fill="#f2386b"/><circle cx="-12" cy="-11" r="17" fill="#fff" opacity=".22"/>
<rect x="-68" y="62" width="136" height="105" rx="45" fill="#ff8a00"/>
</g>
<rect x="345" y="655" width="710" height="34" rx="17" fill="#3b0826" opacity=".12"/>
</g>
</svg>