<svg xmlns="http://www.w3.org/2000/svg" viewBox="0 0 900 640" role="img" aria-labelledby="t d">
<title id="t">Mentoría y crecimiento empresarial</title><desc id="d">Ilustración de mentoría profesional con documentos, conversación y red de contactos.</desc>
<defs><linearGradient id="g" x1="0" y1="0" x2="1" y2="1"><stop stop-color="#C90058"/><stop offset="1" stop-color="#FFB000"/></linearGradient><filter id="s"><feDropShadow dx="0" dy="18" stdDeviation="18" flood-color="#3b0826" flood-opacity=".12"/></filter></defs>
<rect width="900" height="640" rx="36" fill="#fff8f4"/>
<circle cx="745" cy="130" r="105" fill="#ffb000" opacity=".16"/>
<circle cx="130" cy="530" r="115" fill="#c90058" opacity=".10"/>
<g filter="url(#s)">
<rect x="185" y="148" width="530" height="344" rx="32" fill="white"/>
<rect x="235" y="210" width="320" height="22" rx="11" fill="#3b0826" opacity=".14"/>
<rect x="235" y="260" width="430" height="18" rx="9" fill="#3b0826" opacity=".10"/>
<rect x="235" y="302" width="385" height="18" rx="9" fill="#3b0826" opacity=".10"/>
<rect x="235" y="344" width="440" height="18" rx="9" fill="#3b0826" opacity=".10"/>
<path d="M244 430 C322 374 378 440 449 370 C530 292 601 410 665 320" fill="none" stroke="url(#g)" stroke-width="14" stroke-linecap="round"/>
</g>
<g transform="translate(160 210)"><circle r="44" fill="#C90058"/><path d="M-55 75 Q0 25 55 75 V130 H-55Z" fill="#3b0826"/></g>
<g transform="translate(740 300)"><circle r="42" fill="#FFB000"/><path d="M-55 72 Q0 25 55 72 V127 H-55Z" fill="#C90058"/></g>
</svg>