<svg xmlns="http://www.w3.org/2000/svg" width="1600" height="1000" viewBox="0 0 1600 1000" role="img" aria-labelledby="title-membership desc-membership">
  <title id="title-membership">Comunidad de socias</title>
  <desc id="desc-membership">Imagen de llamada a la acción para formar parte de AME Ourense</desc>
  
  <defs>
    <linearGradient id="bg-membership" x1="0" y1="0" x2="1" y2="1">
      <stop offset="0" stop-color="#fffdfb"/>
      <stop offset="0.45" stop-color="#fff5f8"/>
      <stop offset="1" stop-color="#fff0dc"/>
    </linearGradient>
    <linearGradient id="brand-membership" x1="0" y1="0" x2="1" y2="1">
      <stop offset="0" stop-color="#c90058"/>
      <stop offset="0.46" stop-color="#f2386b"/>
      <stop offset="1" stop-color="#ffb300"/>
    </linearGradient>
    <linearGradient id="brand2-membership" x1="0" y1="1" x2="1" y2="0">
      <stop offset="0" stop-color="#7d0b49"/>
      <stop offset="0.52" stop-color="#df005f"/>
      <stop offset="1" stop-color="#ff8a00"/>
    </linearGradient>
    <linearGradient id="plum-membership" x1="0" y1="0" x2="1" y2="1">
      <stop offset="0" stop-color="#3b0826"/>
      <stop offset="1" stop-color="#78134c"/>
    </linearGradient>
    <linearGradient id="glass-membership" x1="0" y1="0" x2="1" y2="1">
      <stop offset="0" stop-color="#ffffff" stop-opacity="0.92"/>
      <stop offset="1" stop-color="#ffffff" stop-opacity="0.54"/>
    </linearGradient>
    <radialGradient id="glow-membership" cx="50%" cy="45%" r="70%">
      <stop offset="0" stop-color="#ffcf4a" stop-opacity="0.42"/>
      <stop offset="0.48" stop-color="#f2386b" stop-opacity="0.16"/>
      <stop offset="1" stop-color="#ffffff" stop-opacity="0"/>
    </radialGradient>
    <filter id="shadow-membership" x="-20%" y="-20%" width="140%" height="150%">
      <feDropShadow dx="0" dy="28" stdDeviation="34" flood-color="#3b0826" flood-opacity="0.18"/>
    </filter>
    <filter id="softshadow-membership" x="-20%" y="-20%" width="140%" height="150%">
      <feDropShadow dx="0" dy="14" stdDeviation="20" flood-color="#3b0826" flood-opacity="0.12"/>
    </filter>
    <pattern id="dots-membership" width="44" height="44" patternUnits="userSpaceOnUse">
      <circle cx="2" cy="2" r="2" fill="#c90058" opacity="0.08"/>
    </pattern>
    <pattern id="grid-membership" width="80" height="80" patternUnits="userSpaceOnUse">
      <path d="M80 0H0v80" fill="none" stroke="#3b0826" stroke-opacity="0.055" stroke-width="1"/>
    </pattern>
    <clipPath id="round-membership"><rect x="0" y="0" width="1600" height="1000" rx="54"/></clipPath>
  </defs>
  <g clip-path="url(#round-membership)">
  
  <rect width="1600" height="1000" rx="54" fill="url(#bg-membership)"/>
  <rect width="1600" height="1000" rx="54" fill="url(#grid-membership)" opacity=".55"/>
  <circle cx="1310" cy="130" r="360" fill="url(#glow-membership)"/>
  <circle cx="120" cy="880" r="360" fill="#c90058" opacity=".055"/>
  <path d="M-80 230 C 160 70, 480 40, 760 122 C 980 186, 1110 340, 1660 214" fill="none" stroke="url(#brand-membership)" stroke-width="36" stroke-linecap="round" opacity=".16"/>
  <path d="M1060 -50 C 1170 185, 1350 210, 1524 92 C 1666 -4, 1728 228, 1530 344 C 1322 466, 1176 385, 1032 160" fill="none" stroke="url(#brand-membership)" stroke-width="50" stroke-linecap="round" opacity=".20"/>

  
  
    <g opacity="0.56">
      <path d="M0 848 C 240 784, 370 810, 540 838 C 760 876, 960 768, 1220 816 C 1420 852, 1510 802, 1600 826 V1000 H0 Z" fill="#3b0826" opacity=".08"/>
      <path d="M250 878 H1370" stroke="#3b0826" stroke-opacity=".16" stroke-width="8" stroke-linecap="round"/>
      <path d="M286 878 C420 760, 640 760, 774 878" fill="none" stroke="#3b0826" stroke-width="8" stroke-opacity=".15"/>
      <path d="M826 878 C960 770, 1180 770, 1316 878" fill="none" stroke="#3b0826" stroke-width="8" stroke-opacity=".15"/>
      <rect x="104" y="770" width="74" height="132" rx="8" fill="#3b0826" opacity=".08"/>
      <rect x="196" y="808" width="90" height="94" rx="8" fill="#3b0826" opacity=".06"/>
      <rect x="1324" y="782" width="86" height="120" rx="8" fill="#3b0826" opacity=".07"/>
    </g>
  <g filter="url(#shadow-membership)"><rect x="180" y="172" width="1240" height="650" rx="60" fill="url(#glass-membership)" stroke="#fff"/></g>
  
    <g filter="url(#softshadow-membership)">
      <path d="M312.48 517.44 C 254.16 465.6, 262.8 420.24, 297.36 400.8" fill="none" stroke="#ffd1b8" stroke-width="18.36" stroke-linecap="round"/><circle cx="304.92" cy="396.48" r="10.8" fill="#ffd1b8"/>
      <path d="M277.91999999999996 657.84 C 299.52 543.36, 321.12 500.16, 368.64 485.04 C 424.8 500.16, 448.56 547.6800000000001, 468.0 657.84 Z" fill="#c90058"/>
      <path d="M308.15999999999997 558.48 C 340.56 590.88, 396.72 590.88, 429.12 558.48" fill="none" stroke="#ffffff" stroke-width="7.5600000000000005" stroke-linecap="round" opacity=".74"/>
      <circle cx="364.32" cy="438.6" r="49.68000000000001" fill="#ffd1b8"/>
      <path d="M312.48 441.84000000000003 C 299.52 379.2, 344.88 344.64, 405.36 361.92 C 444.24 374.88, 446.4 428.88, 422.64 467.76 C 405.36 438.6, 390.24 413.76, 357.84 418.08 C 336.24 420.24, 325.44 435.36, 312.48 441.84000000000003 Z" fill="#3b0826"/>
      <circle cx="347.04" cy="441.84000000000003" r="4.32" fill="#3b0826" opacity=".65"/>
      <circle cx="390.24" cy="441.84000000000003" r="4.32" fill="#3b0826" opacity=".65"/>
      <path d="M355.68 471.0 C 372.96 482.88, 392.4 478.56, 405.36 465.6" fill="none" stroke="#9b214c" stroke-width="5.4" stroke-linecap="round" opacity=".55"/>
    </g>
  
    <g filter="url(#softshadow-membership)">
      <path d="M515.4 496.5 C 486.0 528.0, 473.4 563.7, 477.6 601.5" fill="none" stroke="#f4b497" stroke-width="17.85" stroke-linecap="round" opacity=".95"/>
      <path d="M490.2 620.4000000000001 C 511.2 509.1, 532.2 467.1, 578.4 452.4 C 633.0 467.1, 656.1 513.3, 675.0 620.4000000000001 Z" fill="#ff8a00"/>
      <path d="M519.6 523.8 C 551.1 555.3, 605.7 555.3, 637.2 523.8" fill="none" stroke="#ffffff" stroke-width="7.3500000000000005" stroke-linecap="round" opacity=".74"/>
      <circle cx="574.2" cy="407.25" r="48.300000000000004" fill="#f4b497"/>
      <path d="M523.8 410.4 C 511.2 349.5, 555.3 315.9, 614.1 332.7 C 651.9 345.3, 654.0 397.8, 630.9 435.6 C 614.1 407.25, 599.4 383.1, 567.9 387.3 C 546.9 389.4, 536.4 404.1, 523.8 410.4 Z" fill="#561036"/>
      <circle cx="557.4" cy="410.4" r="4.2" fill="#3b0826" opacity=".65"/>
      <circle cx="599.4" cy="410.4" r="4.2" fill="#3b0826" opacity=".65"/>
      <path d="M565.8 438.75 C 582.6 450.3, 601.5 446.1, 614.1 433.5" fill="none" stroke="#9b214c" stroke-width="5.25" stroke-linecap="round" opacity=".55"/>
    </g>
  
    <g filter="url(#softshadow-membership)">
      <path d="M834.0 518.0 C 906.0 496.0, 928.0 452.0, 956.0 428.0" fill="none" stroke="#ffcfb7" stroke-width="18.0" stroke-linecap="round"/><circle cx="962.0" cy="424.0" r="11.0" fill="#ffcfb7"/>
      <path d="M702.0 644.0 C 722.0 538.0, 742.0 498.0, 786.0 484.0 C 838.0 498.0, 860.0 542.0, 878.0 644.0 Z" fill="#7d0b49"/>
      <path d="M730.0 552.0 C 760.0 582.0, 812.0 582.0, 842.0 552.0" fill="none" stroke="#ffffff" stroke-width="7.0" stroke-linecap="round" opacity=".74"/>
      <circle cx="782.0" cy="441.0" r="46.0" fill="#ffcfb7"/>
      <path d="M734.0 444.0 C 722.0 386.0, 764.0 354.0, 820.0 370.0 C 856.0 382.0, 858.0 432.0, 836.0 468.0 C 820.0 441.0, 806.0 418.0, 776.0 422.0 C 756.0 424.0, 746.0 438.0, 734.0 444.0 Z" fill="#2e071f"/>
      <circle cx="766.0" cy="444.0" r="4.0" fill="#3b0826" opacity=".65"/>
      <circle cx="806.0" cy="444.0" r="4.0" fill="#3b0826" opacity=".65"/>
      <path d="M774.0 471.0 C 790.0 482.0, 808.0 478.0, 820.0 466.0" fill="none" stroke="#9b214c" stroke-width="5.0" stroke-linecap="round" opacity=".55"/>
    </g>
  
    <g filter="url(#softshadow-membership)">
      <rect x="970" y="252" width="320" height="148" rx="30" fill="url(#glass-membership)" stroke="#ffffff" stroke-opacity=".9"/>
      <rect x="994" y="276" width="64" height="64" rx="22" fill="#c90058" opacity=".12"/>
      <circle cx="1026" cy="308" r="16" fill="#c90058"/>
      <text x="994" y="380" text-anchor="start" fill="#3b0826" opacity="1" style="font-family:Inter,Segoe UI,Arial,sans-serif;font-weight:900;font-size:32px;letter-spacing:0;">Profesional</text>
      <text x="994" y="416" text-anchor="start" fill="#6d5c66" opacity="1" style="font-family:Inter,Segoe UI,Arial,sans-serif;font-weight:650;font-size:19px;letter-spacing:0;">Networking y formación.</text>
    </g>
  
    <g filter="url(#softshadow-membership)">
      <rect x="970" y="436" width="320" height="148" rx="30" fill="url(#glass-membership)" stroke="#ffffff" stroke-opacity=".9"/>
      <rect x="994" y="460" width="64" height="64" rx="22" fill="#ff9f00" opacity=".12"/>
      <circle cx="1026" cy="492" r="16" fill="#ff9f00"/>
      <text x="994" y="564" text-anchor="start" fill="#3b0826" opacity="1" style="font-family:Inter,Segoe UI,Arial,sans-serif;font-weight:900;font-size:32px;letter-spacing:0;">Empresa</text>
      <text x="994" y="600" text-anchor="start" fill="#6d5c66" opacity="1" style="font-family:Inter,Segoe UI,Arial,sans-serif;font-weight:650;font-size:19px;letter-spacing:0;">Visibilidad y alianzas.</text>
    </g>
  
    <g filter="url(#softshadow-membership)">
      <rect x="970" y="620" width="320" height="148" rx="30" fill="url(#glass-membership)" stroke="#ffffff" stroke-opacity=".9"/>
      <rect x="994" y="644" width="64" height="64" rx="22" fill="#7d0b49" opacity=".12"/>
      <circle cx="1026" cy="676" r="16" fill="#7d0b49"/>
      <text x="994" y="748" text-anchor="start" fill="#3b0826" opacity="1" style="font-family:Inter,Segoe UI,Arial,sans-serif;font-weight:900;font-size:32px;letter-spacing:0;">Colabora</text>
      <text x="994" y="784" text-anchor="start" fill="#6d5c66" opacity="1" style="font-family:Inter,Segoe UI,Arial,sans-serif;font-weight:650;font-size:19px;letter-spacing:0;">Proyectos con impacto.</text>
    </g>
  <path d="M330 738 C 560 804, 800 790, 1030 735" stroke="url(#brand-membership)" stroke-width="20" stroke-linecap="round" opacity=".54"/>
  <text x="222" y="884" text-anchor="start" fill="#3b0826" opacity="1" style="font-family:Inter,Segoe UI,Arial,sans-serif;font-weight:900;font-size:38px;letter-spacing:-1.2px;">Formar parte de AME debe sentirse claro desde el primer clic</text>

  </g>
</svg>
