<svg xmlns="http://www.w3.org/2000/svg" width="1600" height="1000" viewBox="0 0 1600 1000" role="img" aria-labelledby="title-visibility desc-visibility">
  <title id="title-visibility">Visibilidad de socias</title>
  <desc id="desc-visibility">Escenario y foco para dar voz y reconocimiento a profesionales de Ourense</desc>
  
  <defs>
    <linearGradient id="bg-visibility" x1="0" y1="0" x2="1" y2="1">
      <stop offset="0" stop-color="#fffdfb"/>
      <stop offset="0.45" stop-color="#fff5f8"/>
      <stop offset="1" stop-color="#fff0dc"/>
    </linearGradient>
    <linearGradient id="brand-visibility" x1="0" y1="0" x2="1" y2="1">
      <stop offset="0" stop-color="#c90058"/>
      <stop offset="0.46" stop-color="#f2386b"/>
      <stop offset="1" stop-color="#ffb300"/>
    </linearGradient>
    <linearGradient id="brand2-visibility" x1="0" y1="1" x2="1" y2="0">
      <stop offset="0" stop-color="#7d0b49"/>
      <stop offset="0.52" stop-color="#df005f"/>
      <stop offset="1" stop-color="#ff8a00"/>
    </linearGradient>
    <linearGradient id="plum-visibility" x1="0" y1="0" x2="1" y2="1">
      <stop offset="0" stop-color="#3b0826"/>
      <stop offset="1" stop-color="#78134c"/>
    </linearGradient>
    <linearGradient id="glass-visibility" x1="0" y1="0" x2="1" y2="1">
      <stop offset="0" stop-color="#ffffff" stop-opacity="0.92"/>
      <stop offset="1" stop-color="#ffffff" stop-opacity="0.54"/>
    </linearGradient>
    <radialGradient id="glow-visibility" cx="50%" cy="45%" r="70%">
      <stop offset="0" stop-color="#ffcf4a" stop-opacity="0.42"/>
      <stop offset="0.48" stop-color="#f2386b" stop-opacity="0.16"/>
      <stop offset="1" stop-color="#ffffff" stop-opacity="0"/>
    </radialGradient>
    <filter id="shadow-visibility" x="-20%" y="-20%" width="140%" height="150%">
      <feDropShadow dx="0" dy="28" stdDeviation="34" flood-color="#3b0826" flood-opacity="0.18"/>
    </filter>
    <filter id="softshadow-visibility" x="-20%" y="-20%" width="140%" height="150%">
      <feDropShadow dx="0" dy="14" stdDeviation="20" flood-color="#3b0826" flood-opacity="0.12"/>
    </filter>
    <pattern id="dots-visibility" width="44" height="44" patternUnits="userSpaceOnUse">
      <circle cx="2" cy="2" r="2" fill="#c90058" opacity="0.08"/>
    </pattern>
    <pattern id="grid-visibility" width="80" height="80" patternUnits="userSpaceOnUse">
      <path d="M80 0H0v80" fill="none" stroke="#3b0826" stroke-opacity="0.055" stroke-width="1"/>
    </pattern>
    <clipPath id="round-visibility"><rect x="0" y="0" width="1600" height="1000" rx="54"/></clipPath>
  </defs>
  <g clip-path="url(#round-visibility)">
  
  <rect width="1600" height="1000" rx="54" fill="url(#bg-visibility)"/>
  <rect width="1600" height="1000" rx="54" fill="url(#grid-visibility)" opacity=".55"/>
  <circle cx="1310" cy="130" r="360" fill="url(#glow-visibility)"/>
  <circle cx="120" cy="880" r="360" fill="#c90058" opacity=".055"/>
  <path d="M-80 230 C 160 70, 480 40, 760 122 C 980 186, 1110 340, 1660 214" fill="none" stroke="url(#brand-visibility)" stroke-width="36" stroke-linecap="round" opacity=".16"/>
  <path d="M1060 -50 C 1170 185, 1350 210, 1524 92 C 1666 -4, 1728 228, 1530 344 C 1322 466, 1176 385, 1032 160" fill="none" stroke="url(#brand-visibility)" stroke-width="50" stroke-linecap="round" opacity=".20"/>

  
  <g filter="url(#shadow-visibility)"><rect x="176" y="156" width="1248" height="684" rx="64" fill="url(#glass-visibility)" stroke="#fff"/></g>
  <path d="M820 196 L1210 760 H430 Z" fill="#ffcf4a" opacity=".20"/>
  <ellipse cx="820" cy="754" rx="452" ry="72" fill="#3b0826" opacity=".12"/>
  <g filter="url(#softshadow-visibility)">
    <rect x="500" y="660" width="640" height="120" rx="48" fill="#3b0826"/>
    <path d="M558 716 H1082" stroke="url(#brand-visibility)" stroke-width="18" stroke-linecap="round" opacity=".86"/>
  </g>
  
    <g filter="url(#softshadow-visibility)">
      <path d="M721.04 538.12 C 648.68 473.8, 659.4 417.52, 702.28 393.4" fill="none" stroke="#ffd1b8" stroke-width="22.78" stroke-linecap="round"/><circle cx="711.66" cy="388.04" r="13.4" fill="#ffd1b8"/>
      <path d="M678.16 712.3199999999999 C 704.96 570.28, 731.76 516.6800000000001, 790.72 497.92 C 860.4 516.6800000000001, 889.88 575.64, 914.0 712.3199999999999 Z" fill="#c90058"/>
      <path d="M715.68 589.04 C 755.88 629.24, 825.56 629.24, 865.76 589.04" fill="none" stroke="#ffffff" stroke-width="9.38" stroke-linecap="round" opacity=".74"/>
      <circle cx="785.36" cy="440.3" r="61.64" fill="#ffd1b8"/>
      <path d="M721.04 444.32 C 704.96 366.6, 761.24 323.72, 836.28 345.15999999999997 C 884.52 361.24, 887.2 428.24, 857.72 476.48 C 836.28 440.3, 817.52 409.48, 777.32 414.84000000000003 C 750.52 417.52, 737.12 436.28, 721.04 444.32 Z" fill="#321124"/>
      <circle cx="763.92" cy="444.32" r="5.36" fill="#3b0826" opacity=".65"/>
      <circle cx="817.52" cy="444.32" r="5.36" fill="#3b0826" opacity=".65"/>
      <path d="M774.64 480.5 C 796.08 495.24, 820.2 489.88, 836.28 473.8" fill="none" stroke="#9b214c" stroke-width="6.7" stroke-linecap="round" opacity=".55"/>
    </g>
  <circle cx="1210" cy="255" r="70" fill="url(#brand-visibility)" opacity=".88"/><text x="1210" y="270" text-anchor="middle" fill="#ffffff" opacity="1" style="font-family:Inter,Segoe UI,Arial,sans-serif;font-weight:950;font-size:34px;letter-spacing:-1.2px;">AME</text>
  <path d="M355 292 C480 240, 600 232, 700 265" stroke="url(#brand-visibility)" stroke-width="16" stroke-linecap="round" opacity=".42" fill="none"/>
  <text x="225" y="900" text-anchor="start" fill="#3b0826" opacity="1" style="font-family:Inter,Segoe UI,Arial,sans-serif;font-weight:900;font-size:37px;letter-spacing:-1.2px;">Visibilidad real para referentes empresariales de la provincia</text>

  </g>
</svg>
