<svg xmlns="http://www.w3.org/2000/svg" width="1600" height="1000" viewBox="0 0 1600 1000" role="img" aria-labelledby="title-training desc-training">
  <title id="title-training">Formación profesional</title>
  <desc id="desc-training">Aula, pantalla y herramientas de aprendizaje para empresarias y profesionales</desc>
  
  <defs>
    <linearGradient id="bg-training" x1="0" y1="0" x2="1" y2="1">
      <stop offset="0" stop-color="#fffdfb"/>
      <stop offset="0.45" stop-color="#fff5f8"/>
      <stop offset="1" stop-color="#fff0dc"/>
    </linearGradient>
    <linearGradient id="brand-training" x1="0" y1="0" x2="1" y2="1">
      <stop offset="0" stop-color="#c90058"/>
      <stop offset="0.46" stop-color="#f2386b"/>
      <stop offset="1" stop-color="#ffb300"/>
    </linearGradient>
    <linearGradient id="brand2-training" x1="0" y1="1" x2="1" y2="0">
      <stop offset="0" stop-color="#7d0b49"/>
      <stop offset="0.52" stop-color="#df005f"/>
      <stop offset="1" stop-color="#ff8a00"/>
    </linearGradient>
    <linearGradient id="plum-training" x1="0" y1="0" x2="1" y2="1">
      <stop offset="0" stop-color="#3b0826"/>
      <stop offset="1" stop-color="#78134c"/>
    </linearGradient>
    <linearGradient id="glass-training" x1="0" y1="0" x2="1" y2="1">
      <stop offset="0" stop-color="#ffffff" stop-opacity="0.92"/>
      <stop offset="1" stop-color="#ffffff" stop-opacity="0.54"/>
    </linearGradient>
    <radialGradient id="glow-training" cx="50%" cy="45%" r="70%">
      <stop offset="0" stop-color="#ffcf4a" stop-opacity="0.42"/>
      <stop offset="0.48" stop-color="#f2386b" stop-opacity="0.16"/>
      <stop offset="1" stop-color="#ffffff" stop-opacity="0"/>
    </radialGradient>
    <filter id="shadow-training" x="-20%" y="-20%" width="140%" height="150%">
      <feDropShadow dx="0" dy="28" stdDeviation="34" flood-color="#3b0826" flood-opacity="0.18"/>
    </filter>
    <filter id="softshadow-training" x="-20%" y="-20%" width="140%" height="150%">
      <feDropShadow dx="0" dy="14" stdDeviation="20" flood-color="#3b0826" flood-opacity="0.12"/>
    </filter>
    <pattern id="dots-training" width="44" height="44" patternUnits="userSpaceOnUse">
      <circle cx="2" cy="2" r="2" fill="#c90058" opacity="0.08"/>
    </pattern>
    <pattern id="grid-training" width="80" height="80" patternUnits="userSpaceOnUse">
      <path d="M80 0H0v80" fill="none" stroke="#3b0826" stroke-opacity="0.055" stroke-width="1"/>
    </pattern>
    <clipPath id="round-training"><rect x="0" y="0" width="1600" height="1000" rx="54"/></clipPath>
  </defs>
  <g clip-path="url(#round-training)">
  
  <rect width="1600" height="1000" rx="54" fill="url(#bg-training)"/>
  <rect width="1600" height="1000" rx="54" fill="url(#grid-training)" opacity=".55"/>
  <circle cx="1310" cy="130" r="360" fill="url(#glow-training)"/>
  <circle cx="120" cy="880" r="360" fill="#c90058" opacity=".055"/>
  <path d="M-80 230 C 160 70, 480 40, 760 122 C 980 186, 1110 340, 1660 214" fill="none" stroke="url(#brand-training)" stroke-width="36" stroke-linecap="round" opacity=".16"/>
  <path d="M1060 -50 C 1170 185, 1350 210, 1524 92 C 1666 -4, 1728 228, 1530 344 C 1322 466, 1176 385, 1032 160" fill="none" stroke="url(#brand-training)" stroke-width="50" stroke-linecap="round" opacity=".20"/>

  
  <g filter="url(#shadow-training)"><rect x="174" y="148" width="1252" height="690" rx="64" fill="url(#glass-training)" stroke="#fff"/></g>
  <g filter="url(#softshadow-training)">
    <rect x="330" y="220" width="620" height="370" rx="36" fill="#3b0826"/>
    <rect x="374" y="270" width="530" height="230" rx="22" fill="url(#brand-training)"/>
    <text x="420" y="350" text-anchor="start" fill="#ffffff" opacity="1" style="font-family:Inter,Segoe UI,Arial,sans-serif;font-weight:950;font-size:55px;letter-spacing:-1.2px;">Taller</text><text x="424" y="406" text-anchor="start" fill="#ffffff" opacity="0.82" style="font-family:Inter,Segoe UI,Arial,sans-serif;font-weight:820;font-size:28px;letter-spacing:0;">marca · digital · ventas</text>
    <path d="M430 458 H800" stroke="#ffcf4a" stroke-width="12" stroke-linecap="round" opacity=".8"/>
  </g>
  
    <g filter="url(#softshadow-training)">
      <path d="M1120.72 558.64 C 1201.3600000000001 534.0, 1226.0 484.72, 1257.3600000000001 457.84000000000003" fill="none" stroke="#ffd1b8" stroke-width="20.160000000000004" stroke-linecap="round"/><circle cx="1264.08" cy="453.36" r="12.32" fill="#ffd1b8"/>
      <path d="M972.88 699.76 C 995.28 581.04, 1017.68 536.24, 1066.96 520.56 C 1125.2 536.24, 1149.84 585.52, 1170.0 699.76 Z" fill="#c90058"/>
      <path d="M1004.24 596.72 C 1037.84 630.32, 1096.08 630.32, 1129.68 596.72" fill="none" stroke="#ffffff" stroke-width="7.840000000000001" stroke-linecap="round" opacity=".74"/>
      <circle cx="1062.48" cy="472.4" r="51.52" fill="#ffd1b8"/>
      <path d="M1008.72 475.76 C 995.28 410.8, 1042.32 374.96, 1105.04 392.88 C 1145.3600000000001 406.32, 1147.6 462.32, 1122.96 502.64 C 1105.04 472.4, 1089.36 446.64, 1055.76 451.12 C 1033.36 453.36, 1022.16 469.04, 1008.72 475.76 Z" fill="#3b0826"/>
      <circle cx="1044.56" cy="475.76" r="4.48" fill="#3b0826" opacity=".65"/>
      <circle cx="1089.36" cy="475.76" r="4.48" fill="#3b0826" opacity=".65"/>
      <path d="M1053.52 506.0 C 1071.44 518.32, 1091.6 513.84, 1105.04 500.4" fill="none" stroke="#9b214c" stroke-width="5.6000000000000005" stroke-linecap="round" opacity=".55"/>
    </g>
  
    <g filter="url(#softshadow-training)">
      <path d="M450.64 710.4 C 431.6 730.8, 423.44 753.9200000000001, 426.15999999999997 778.4" fill="none" stroke="#ffcfb7" stroke-width="11.56" stroke-linecap="round" opacity=".95"/>
      <path d="M434.32 790.64 C 447.92 718.56, 461.52 691.36, 491.44 681.84 C 526.8 691.36, 541.76 721.28, 554.0 790.64 Z" fill="#7d0b49"/>
      <path d="M453.36 728.08 C 473.76 748.48, 509.12 748.48, 529.52 728.08" fill="none" stroke="#ffffff" stroke-width="4.760000000000001" stroke-linecap="round" opacity=".74"/>
      <circle cx="488.72" cy="652.6" r="31.28" fill="#ffcfb7"/>
      <path d="M456.08 654.64 C 447.92 615.2, 476.48 593.44, 514.56 604.32 C 539.04 612.48, 540.4 646.48, 525.44 670.96 C 514.56 652.6, 505.04 636.96, 484.64 639.68 C 471.04 641.04, 464.24 650.56, 456.08 654.64 Z" fill="#2e071f"/>
      <circle cx="477.84" cy="654.64" r="2.72" fill="#3b0826" opacity=".65"/>
      <circle cx="505.04" cy="654.64" r="2.72" fill="#3b0826" opacity=".65"/>
      <path d="M483.28 673.0 C 494.16 680.48, 506.4 677.76, 514.56 669.6" fill="none" stroke="#9b214c" stroke-width="3.4000000000000004" stroke-linecap="round" opacity=".55"/>
    </g>
  
    <g filter="url(#softshadow-training)">
      <path d="M672.64 726.4 C 653.6 746.8, 645.44 769.9200000000001, 648.16 794.4" fill="none" stroke="#f4b497" stroke-width="11.56" stroke-linecap="round" opacity=".95"/>
      <path d="M656.3199999999999 806.64 C 669.92 734.56, 683.52 707.36, 713.44 697.84 C 748.8 707.36, 763.76 737.28, 776.0 806.64 Z" fill="#ff8a00"/>
      <path d="M675.36 744.08 C 695.76 764.48, 731.12 764.48, 751.52 744.08" fill="none" stroke="#ffffff" stroke-width="4.760000000000001" stroke-linecap="round" opacity=".74"/>
      <circle cx="710.72" cy="668.6" r="31.28" fill="#f4b497"/>
      <path d="M678.08 670.64 C 669.92 631.2, 698.48 609.44, 736.56 620.32 C 761.04 628.48, 762.4 662.48, 747.44 686.96 C 736.56 668.6, 727.04 652.96, 706.64 655.68 C 693.04 657.04, 686.24 666.56, 678.08 670.64 Z" fill="#561036"/>
      <circle cx="699.84" cy="670.64" r="2.72" fill="#3b0826" opacity=".65"/>
      <circle cx="727.04" cy="670.64" r="2.72" fill="#3b0826" opacity=".65"/>
      <path d="M705.28 689.0 C 716.16 696.48, 728.4 693.76, 736.56 685.6" fill="none" stroke="#9b214c" stroke-width="3.4000000000000004" stroke-linecap="round" opacity=".55"/>
    </g>
  
    <g filter="url(#softshadow-training)">
      <rect x="1010" y="674" width="250" height="145" rx="22" fill="#ffffff" stroke="#eadde4"/>
      <rect x="1032" y="694" width="206" height="100" rx="12" fill="#3b0826" opacity=".92"/>
      <path d="M1054 821 H1216 L1270 861 H1000 Z" fill="#ffffff" stroke="#eadde4"/>
      <circle cx="1135.0" cy="746.5" r="18" fill="#ff9f00" opacity=".88"/>
      <path d="M1080 726 H1190" stroke="#ffcf4a" stroke-width="6" stroke-linecap="round" opacity=".88"/>
      <path d="M1080 750 H1155" stroke="#ffffff" stroke-width="6" stroke-linecap="round" opacity=".42"/>
      <path d="M1080 774 H1170" stroke="#ffffff" stroke-width="6" stroke-linecap="round" opacity=".22"/>
    </g>
  <text x="210" y="894" text-anchor="start" fill="#3b0826" opacity="1" style="font-family:Inter,Segoe UI,Arial,sans-serif;font-weight:900;font-size:38px;letter-spacing:-1.2px;">Formación práctica para aplicar al negocio desde mañana</text>

  </g>
</svg>
