<svg xmlns="http://www.w3.org/2000/svg" width="1600" height="1000" viewBox="0 0 1600 1000" role="img" aria-labelledby="title-mentoring desc-mentoring">
  <title id="title-mentoring">Mentoría empresarial</title>
  <desc id="desc-mentoring">Mentora y emprendedora trabajando con estrategia y acompañamiento</desc>
  
  <defs>
    <linearGradient id="bg-mentoring" x1="0" y1="0" x2="1" y2="1">
      <stop offset="0" stop-color="#fffdfb"/>
      <stop offset="0.45" stop-color="#fff5f8"/>
      <stop offset="1" stop-color="#fff0dc"/>
    </linearGradient>
    <linearGradient id="brand-mentoring" x1="0" y1="0" x2="1" y2="1">
      <stop offset="0" stop-color="#c90058"/>
      <stop offset="0.46" stop-color="#f2386b"/>
      <stop offset="1" stop-color="#ffb300"/>
    </linearGradient>
    <linearGradient id="brand2-mentoring" x1="0" y1="1" x2="1" y2="0">
      <stop offset="0" stop-color="#7d0b49"/>
      <stop offset="0.52" stop-color="#df005f"/>
      <stop offset="1" stop-color="#ff8a00"/>
    </linearGradient>
    <linearGradient id="plum-mentoring" x1="0" y1="0" x2="1" y2="1">
      <stop offset="0" stop-color="#3b0826"/>
      <stop offset="1" stop-color="#78134c"/>
    </linearGradient>
    <linearGradient id="glass-mentoring" x1="0" y1="0" x2="1" y2="1">
      <stop offset="0" stop-color="#ffffff" stop-opacity="0.92"/>
      <stop offset="1" stop-color="#ffffff" stop-opacity="0.54"/>
    </linearGradient>
    <radialGradient id="glow-mentoring" cx="50%" cy="45%" r="70%">
      <stop offset="0" stop-color="#ffcf4a" stop-opacity="0.42"/>
      <stop offset="0.48" stop-color="#f2386b" stop-opacity="0.16"/>
      <stop offset="1" stop-color="#ffffff" stop-opacity="0"/>
    </radialGradient>
    <filter id="shadow-mentoring" x="-20%" y="-20%" width="140%" height="150%">
      <feDropShadow dx="0" dy="28" stdDeviation="34" flood-color="#3b0826" flood-opacity="0.18"/>
    </filter>
    <filter id="softshadow-mentoring" x="-20%" y="-20%" width="140%" height="150%">
      <feDropShadow dx="0" dy="14" stdDeviation="20" flood-color="#3b0826" flood-opacity="0.12"/>
    </filter>
    <pattern id="dots-mentoring" width="44" height="44" patternUnits="userSpaceOnUse">
      <circle cx="2" cy="2" r="2" fill="#c90058" opacity="0.08"/>
    </pattern>
    <pattern id="grid-mentoring" width="80" height="80" patternUnits="userSpaceOnUse">
      <path d="M80 0H0v80" fill="none" stroke="#3b0826" stroke-opacity="0.055" stroke-width="1"/>
    </pattern>
    <clipPath id="round-mentoring"><rect x="0" y="0" width="1600" height="1000" rx="54"/></clipPath>
  </defs>
  <g clip-path="url(#round-mentoring)">
  
  <rect width="1600" height="1000" rx="54" fill="url(#bg-mentoring)"/>
  <rect width="1600" height="1000" rx="54" fill="url(#grid-mentoring)" opacity=".55"/>
  <circle cx="1310" cy="130" r="360" fill="url(#glow-mentoring)"/>
  <circle cx="120" cy="880" r="360" fill="#c90058" opacity=".055"/>
  <path d="M-80 230 C 160 70, 480 40, 760 122 C 980 186, 1110 340, 1660 214" fill="none" stroke="url(#brand-mentoring)" stroke-width="36" stroke-linecap="round" opacity=".16"/>
  <path d="M1060 -50 C 1170 185, 1350 210, 1524 92 C 1666 -4, 1728 228, 1530 344 C 1322 466, 1176 385, 1032 160" fill="none" stroke="url(#brand-mentoring)" stroke-width="50" stroke-linecap="round" opacity=".20"/>

  
  <g filter="url(#shadow-mentoring)"><rect x="172" y="150" width="1256" height="690" rx="64" fill="url(#glass-mentoring)" stroke="#fff"/></g>
  <g filter="url(#softshadow-mentoring)"><rect x="454" y="608" width="720" height="98" rx="38" fill="#ffffff" stroke="#eadde4"/><path d="M514 655 H1118" stroke="#3b0826" stroke-width="18" opacity=".09" stroke-linecap="round"/></g>
  
    <g filter="url(#softshadow-mentoring)">
      <path d="M512.8 513.0 C 482.0 546.0, 468.8 583.4, 473.2 623.0" fill="none" stroke="#ffd1b8" stroke-width="18.700000000000003" stroke-linecap="round" opacity=".95"/>
      <path d="M486.4 642.8 C 508.4 526.2, 530.4 482.2, 578.8 466.8 C 636.0 482.2, 660.2 530.6, 680.0 642.8 Z" fill="#c90058"/>
      <path d="M517.2 541.6 C 550.2 574.6, 607.4 574.6, 640.4 541.6" fill="none" stroke="#ffffff" stroke-width="7.700000000000001" stroke-linecap="round" opacity=".74"/>
      <circle cx="574.4" cy="419.5" r="50.6" fill="#ffd1b8"/>
      <path d="M521.6 422.8 C 508.4 359.0, 554.6 323.8, 616.2 341.4 C 655.8 354.6, 658.0 409.6, 633.8 449.2 C 616.2 419.5, 600.8 394.2, 567.8 398.6 C 545.8 400.8, 534.8 416.2, 521.6 422.8 Z" fill="#321124"/>
      <circle cx="556.8" cy="422.8" r="4.4" fill="#3b0826" opacity=".65"/>
      <circle cx="600.8" cy="422.8" r="4.4" fill="#3b0826" opacity=".65"/>
      <path d="M565.6 452.5 C 583.2 464.6, 603.0 460.2, 616.2 447.0" fill="none" stroke="#9b214c" stroke-width="5.5" stroke-linecap="round" opacity=".55"/>
    </g>
  
    <g filter="url(#softshadow-mentoring)">
      <path d="M945.12 510.36 C 890.04 461.4, 898.2 418.56, 930.84 400.2" fill="none" stroke="#f4b497" stroke-width="17.34" stroke-linecap="round"/><circle cx="937.98" cy="396.12" r="10.2" fill="#f4b497"/>
      <path d="M912.48 642.96 C 932.88 534.84, 953.28 494.04, 998.16 479.76 C 1051.2 494.04, 1073.64 538.9200000000001, 1092.0 642.96 Z" fill="#ff8a00"/>
      <path d="M941.04 549.12 C 971.64 579.72, 1024.68 579.72, 1055.28 549.12" fill="none" stroke="#ffffff" stroke-width="7.140000000000001" stroke-linecap="round" opacity=".74"/>
      <circle cx="994.08" cy="435.9" r="46.92" fill="#f4b497"/>
      <path d="M945.12 438.96 C 932.88 379.8, 975.72 347.15999999999997, 1032.84 363.48 C 1069.56 375.72, 1071.6 426.72, 1049.16 463.44 C 1032.84 435.9, 1018.56 412.44, 987.96 416.52 C 967.56 418.56, 957.36 432.84000000000003, 945.12 438.96 Z" fill="#561036"/>
      <circle cx="977.76" cy="438.96" r="4.08" fill="#3b0826" opacity=".65"/>
      <circle cx="1018.56" cy="438.96" r="4.08" fill="#3b0826" opacity=".65"/>
      <path d="M985.92 466.5 C 1002.24 477.72, 1020.6 473.64, 1032.84 461.4" fill="none" stroke="#9b214c" stroke-width="5.1" stroke-linecap="round" opacity=".55"/>
    </g>
  
    <g filter="url(#softshadow-mentoring)">
      <rect x="690" y="515" width="320" height="180" rx="22" fill="#ffffff" stroke="#eadde4"/>
      <rect x="712" y="535" width="276" height="135" rx="12" fill="#3b0826" opacity=".92"/>
      <path d="M734 697 H966 L1020 737 H680 Z" fill="#ffffff" stroke="#eadde4"/>
      <circle cx="850.0" cy="605.0" r="18" fill="#ff9f00" opacity=".88"/>
      <path d="M760 567 H940" stroke="#ffcf4a" stroke-width="6" stroke-linecap="round" opacity=".88"/>
      <path d="M760 591 H905" stroke="#ffffff" stroke-width="6" stroke-linecap="round" opacity=".42"/>
      <path d="M760 615 H920" stroke="#ffffff" stroke-width="6" stroke-linecap="round" opacity=".22"/>
    </g>
  <path d="M616 306 C720 226, 896 218, 990 292" fill="none" stroke="url(#brand-mentoring)" stroke-width="12" stroke-linecap="round" opacity=".48"/>
  
    <g filter="url(#softshadow-mentoring)">
      <rect x="265" y="245" width="260" height="140" rx="30" fill="url(#glass-mentoring)" stroke="#ffffff" stroke-opacity=".9"/>
      <rect x="289" y="269" width="64" height="64" rx="22" fill="#c90058" opacity=".12"/>
      <circle cx="321" cy="301" r="16" fill="#c90058"/>
      <text x="289" y="373" text-anchor="start" fill="#3b0826" opacity="1" style="font-family:Inter,Segoe UI,Arial,sans-serif;font-weight:900;font-size:32px;letter-spacing:0;">Mentoría</text>
      <text x="289" y="409" text-anchor="start" fill="#6d5c66" opacity="1" style="font-family:Inter,Segoe UI,Arial,sans-serif;font-weight:650;font-size:19px;letter-spacing:0;">Aprender acompañada.</text>
    </g>
  
    <g filter="url(#softshadow-mentoring)">
      <rect x="1080" y="238" width="260" height="140" rx="30" fill="url(#glass-mentoring)" stroke="#ffffff" stroke-opacity=".9"/>
      <rect x="1104" y="262" width="64" height="64" rx="22" fill="#ff9f00" opacity=".12"/>
      <circle cx="1136" cy="294" r="16" fill="#ff9f00"/>
      <text x="1104" y="366" text-anchor="start" fill="#3b0826" opacity="1" style="font-family:Inter,Segoe UI,Arial,sans-serif;font-weight:900;font-size:32px;letter-spacing:0;">Plan</text>
      <text x="1104" y="402" text-anchor="start" fill="#6d5c66" opacity="1" style="font-family:Inter,Segoe UI,Arial,sans-serif;font-weight:650;font-size:19px;letter-spacing:0;">Acciones claras.</text>
    </g>
  <text x="225" y="902" text-anchor="start" fill="#3b0826" opacity="1" style="font-family:Inter,Segoe UI,Arial,sans-serif;font-weight:900;font-size:38px;letter-spacing:-1.2px;">Acompañamiento para convertir experiencia en crecimiento</text>

  </g>
</svg>
