<svg xmlns="http://www.w3.org/2000/svg" width="1600" height="1000" viewBox="0 0 1600 1000" role="img" aria-labelledby="title-join desc-join">
  <title id="title-join">Proceso para asociarse</title>
  <desc id="desc-join">Ilustración de una ruta sencilla para captar nuevas socias y acompañar el alta</desc>
  
  <defs>
    <linearGradient id="bg-join" x1="0" y1="0" x2="1" y2="1">
      <stop offset="0" stop-color="#fffdfb"/>
      <stop offset="0.45" stop-color="#fff5f8"/>
      <stop offset="1" stop-color="#fff0dc"/>
    </linearGradient>
    <linearGradient id="brand-join" x1="0" y1="0" x2="1" y2="1">
      <stop offset="0" stop-color="#c90058"/>
      <stop offset="0.46" stop-color="#f2386b"/>
      <stop offset="1" stop-color="#ffb300"/>
    </linearGradient>
    <linearGradient id="brand2-join" x1="0" y1="1" x2="1" y2="0">
      <stop offset="0" stop-color="#7d0b49"/>
      <stop offset="0.52" stop-color="#df005f"/>
      <stop offset="1" stop-color="#ff8a00"/>
    </linearGradient>
    <linearGradient id="plum-join" x1="0" y1="0" x2="1" y2="1">
      <stop offset="0" stop-color="#3b0826"/>
      <stop offset="1" stop-color="#78134c"/>
    </linearGradient>
    <linearGradient id="glass-join" x1="0" y1="0" x2="1" y2="1">
      <stop offset="0" stop-color="#ffffff" stop-opacity="0.92"/>
      <stop offset="1" stop-color="#ffffff" stop-opacity="0.54"/>
    </linearGradient>
    <radialGradient id="glow-join" cx="50%" cy="45%" r="70%">
      <stop offset="0" stop-color="#ffcf4a" stop-opacity="0.42"/>
      <stop offset="0.48" stop-color="#f2386b" stop-opacity="0.16"/>
      <stop offset="1" stop-color="#ffffff" stop-opacity="0"/>
    </radialGradient>
    <filter id="shadow-join" x="-20%" y="-20%" width="140%" height="150%">
      <feDropShadow dx="0" dy="28" stdDeviation="34" flood-color="#3b0826" flood-opacity="0.18"/>
    </filter>
    <filter id="softshadow-join" x="-20%" y="-20%" width="140%" height="150%">
      <feDropShadow dx="0" dy="14" stdDeviation="20" flood-color="#3b0826" flood-opacity="0.12"/>
    </filter>
    <pattern id="dots-join" width="44" height="44" patternUnits="userSpaceOnUse">
      <circle cx="2" cy="2" r="2" fill="#c90058" opacity="0.08"/>
    </pattern>
    <pattern id="grid-join" width="80" height="80" patternUnits="userSpaceOnUse">
      <path d="M80 0H0v80" fill="none" stroke="#3b0826" stroke-opacity="0.055" stroke-width="1"/>
    </pattern>
    <clipPath id="round-join"><rect x="0" y="0" width="1600" height="1000" rx="54"/></clipPath>
  </defs>
  <g clip-path="url(#round-join)">
  
  <rect width="1600" height="1000" rx="54" fill="url(#bg-join)"/>
  <rect width="1600" height="1000" rx="54" fill="url(#grid-join)" opacity=".55"/>
  <circle cx="1310" cy="130" r="360" fill="url(#glow-join)"/>
  <circle cx="120" cy="880" r="360" fill="#c90058" opacity=".055"/>
  <path d="M-80 230 C 160 70, 480 40, 760 122 C 980 186, 1110 340, 1660 214" fill="none" stroke="url(#brand-join)" stroke-width="36" stroke-linecap="round" opacity=".16"/>
  <path d="M1060 -50 C 1170 185, 1350 210, 1524 92 C 1666 -4, 1728 228, 1530 344 C 1322 466, 1176 385, 1032 160" fill="none" stroke="url(#brand-join)" stroke-width="50" stroke-linecap="round" opacity=".20"/>

  
  <g filter="url(#shadow-join)"><rect x="150" y="165" width="1300" height="650" rx="64" fill="url(#glass-join)" stroke="#fff"/></g>
  <path d="M264 610 C 440 390, 650 724, 828 456 C 942 286, 1100 296, 1326 456" fill="none" stroke="url(#brand-join)" stroke-width="28" stroke-linecap="round" opacity=".72"/>
  <path d="M264 610 C 440 390, 650 724, 828 456 C 942 286, 1100 296, 1326 456" fill="none" stroke="#ffffff" stroke-width="8" stroke-linecap="round" opacity=".42"/>
  <g>
    <circle cx="264" cy="610" r="58" fill="#fff" stroke="#c90058" stroke-width="8"/><text x="264" y="620" text-anchor="middle" fill="#3b0826" style="font:900 42px Inter,Arial">1</text>
    <circle cx="632" cy="664" r="58" fill="#fff" stroke="#ff9f00" stroke-width="8"/><text x="632" y="674" text-anchor="middle" fill="#3b0826" style="font:900 42px Inter,Arial">2</text>
    <circle cx="932" cy="338" r="58" fill="#fff" stroke="#c90058" stroke-width="8"/><text x="932" y="348" text-anchor="middle" fill="#3b0826" style="font:900 42px Inter,Arial">3</text>
    <circle cx="1326" cy="456" r="58" fill="#fff" stroke="#ff9f00" stroke-width="8"/><text x="1326" y="466" text-anchor="middle" fill="#3b0826" style="font:900 42px Inter,Arial">✓</text>
  </g>
  
    <g filter="url(#softshadow-join)">
      <rect x="210" y="265" width="310" height="150" rx="30" fill="url(#glass-join)" stroke="#ffffff" stroke-opacity=".9"/>
      <rect x="234" y="289" width="64" height="64" rx="22" fill="#c90058" opacity=".12"/>
      <circle cx="266" cy="321" r="16" fill="#c90058"/>
      <text x="234" y="393" text-anchor="start" fill="#3b0826" opacity="1" style="font-family:Inter,Segoe UI,Arial,sans-serif;font-weight:900;font-size:32px;letter-spacing:0;">Conecta</text>
      <text x="234" y="429" text-anchor="start" fill="#6d5c66" opacity="1" style="font-family:Inter,Segoe UI,Arial,sans-serif;font-weight:650;font-size:19px;letter-spacing:0;">Solicita información.</text>
    </g>
  
    <g filter="url(#softshadow-join)">
      <rect x="555" y="290" width="330" height="150" rx="30" fill="url(#glass-join)" stroke="#ffffff" stroke-opacity=".9"/>
      <rect x="579" y="314" width="64" height="64" rx="22" fill="#ff9f00" opacity=".12"/>
      <circle cx="611" cy="346" r="16" fill="#ff9f00"/>
      <text x="579" y="418" text-anchor="start" fill="#3b0826" opacity="1" style="font-family:Inter,Segoe UI,Arial,sans-serif;font-weight:900;font-size:32px;letter-spacing:0;">Participa</text>
      <text x="579" y="454" text-anchor="start" fill="#6d5c66" opacity="1" style="font-family:Inter,Segoe UI,Arial,sans-serif;font-weight:650;font-size:19px;letter-spacing:0;">Actividades y recursos.</text>
    </g>
  
    <g filter="url(#softshadow-join)">
      <rect x="922" y="540" width="330" height="150" rx="30" fill="url(#glass-join)" stroke="#ffffff" stroke-opacity=".9"/>
      <rect x="946" y="564" width="64" height="64" rx="22" fill="#7d0b49" opacity=".12"/>
      <circle cx="978" cy="596" r="16" fill="#7d0b49"/>
      <text x="946" y="668" text-anchor="start" fill="#3b0826" opacity="1" style="font-family:Inter,Segoe UI,Arial,sans-serif;font-weight:900;font-size:32px;letter-spacing:0;">Crece</text>
      <text x="946" y="704" text-anchor="start" fill="#6d5c66" opacity="1" style="font-family:Inter,Segoe UI,Arial,sans-serif;font-weight:650;font-size:19px;letter-spacing:0;">Visibilidad y alianzas.</text>
    </g>
  
    <g filter="url(#softshadow-join)">
      <rect x="1112" y="190" width="170" height="315" rx="34" fill="#3b0826"/>
      <rect x="1124" y="210" width="146" height="275" rx="24" fill="url(#bg-join)"/>
      <rect x="1144" y="252" width="106" height="16" rx="8" fill="#c90058" opacity=".65"/>
      <rect x="1144" y="286" width="124" height="72" rx="18" fill="#ffffff" opacity=".9"/>
      <rect x="1144" y="376" width="106" height="16" rx="8" fill="#ff9f00" opacity=".75"/>
      <circle cx="1197.0" cy="481" r="6" fill="#ffffff" opacity=".5"/>
    </g>
  
    <g filter="url(#softshadow-join)">
      <path d="M381.0 652.5 C 360.0 675.0, 351.0 700.5, 354.0 727.5" fill="none" stroke="#ffd1b8" stroke-width="12.75" stroke-linecap="round" opacity=".95"/>
      <path d="M363.0 741.0 C 378.0 661.5, 393.0 631.5, 426.0 621.0 C 465.0 631.5, 481.5 664.5, 495.0 741.0 Z" fill="#c90058"/>
      <path d="M384.0 672.0 C 406.5 694.5, 445.5 694.5, 468.0 672.0" fill="none" stroke="#ffffff" stroke-width="5.25" stroke-linecap="round" opacity=".74"/>
      <circle cx="423.0" cy="588.75" r="34.5" fill="#ffd1b8"/>
      <path d="M387.0 591.0 C 378.0 547.5, 409.5 523.5, 451.5 535.5 C 478.5 544.5, 480.0 582.0, 463.5 609.0 C 451.5 588.75, 441.0 571.5, 418.5 574.5 C 403.5 576.0, 396.0 586.5, 387.0 591.0 Z" fill="#3b0826"/>
      <circle cx="411.0" cy="591.0" r="3.0" fill="#3b0826" opacity=".65"/>
      <circle cx="441.0" cy="591.0" r="3.0" fill="#3b0826" opacity=".65"/>
      <path d="M417.0 611.25 C 429.0 619.5, 442.5 616.5, 451.5 607.5" fill="none" stroke="#9b214c" stroke-width="3.75" stroke-linecap="round" opacity=".55"/>
    </g>
  
    <g filter="url(#softshadow-join)">
      <path d="M725.0 633.5 C 684.5 597.5, 690.5 566.0, 714.5 552.5" fill="none" stroke="#f4b497" stroke-width="12.75" stroke-linecap="round"/><circle cx="719.75" cy="549.5" r="7.5" fill="#f4b497"/>
      <path d="M701.0 731.0 C 716.0 651.5, 731.0 621.5, 764.0 611.0 C 803.0 621.5, 819.5 654.5, 833.0 731.0 Z" fill="#ff8a00"/>
      <path d="M722.0 662.0 C 744.5 684.5, 783.5 684.5, 806.0 662.0" fill="none" stroke="#ffffff" stroke-width="5.25" stroke-linecap="round" opacity=".74"/>
      <circle cx="761.0" cy="578.75" r="34.5" fill="#f4b497"/>
      <path d="M725.0 581.0 C 716.0 537.5, 747.5 513.5, 789.5 525.5 C 816.5 534.5, 818.0 572.0, 801.5 599.0 C 789.5 578.75, 779.0 561.5, 756.5 564.5 C 741.5 566.0, 734.0 576.5, 725.0 581.0 Z" fill="#6a173f"/>
      <circle cx="749.0" cy="581.0" r="3.0" fill="#3b0826" opacity=".65"/>
      <circle cx="779.0" cy="581.0" r="3.0" fill="#3b0826" opacity=".65"/>
      <path d="M755.0 601.25 C 767.0 609.5, 780.5 606.5, 789.5 597.5" fill="none" stroke="#9b214c" stroke-width="3.75" stroke-linecap="round" opacity=".55"/>
    </g>
  <text x="190" y="886" text-anchor="start" fill="#3b0826" opacity="1" style="font-family:Inter,Segoe UI,Arial,sans-serif;font-weight:900;font-size:42px;letter-spacing:-1.2px;">Una incorporación sencilla, humana y bien explicada</text>

  </g>
</svg>
