<svg xmlns="http://www.w3.org/2000/svg" width="1600" height="1000" viewBox="0 0 1600 1000" role="img" aria-labelledby="title-member2 desc-member2">
  <title id="title-member2">Perfil de vicepresidencia</title>
  <desc id="desc-member2">Imagen editorial abstracta para perfil de junta directiva o socia destacada</desc>
  
  <defs>
    <linearGradient id="bg-member2" x1="0" y1="0" x2="1" y2="1">
      <stop offset="0" stop-color="#fffdfb"/>
      <stop offset="0.45" stop-color="#fff5f8"/>
      <stop offset="1" stop-color="#fff0dc"/>
    </linearGradient>
    <linearGradient id="brand-member2" x1="0" y1="0" x2="1" y2="1">
      <stop offset="0" stop-color="#c90058"/>
      <stop offset="0.46" stop-color="#f2386b"/>
      <stop offset="1" stop-color="#ffb300"/>
    </linearGradient>
    <linearGradient id="brand2-member2" x1="0" y1="1" x2="1" y2="0">
      <stop offset="0" stop-color="#7d0b49"/>
      <stop offset="0.52" stop-color="#df005f"/>
      <stop offset="1" stop-color="#ff8a00"/>
    </linearGradient>
    <linearGradient id="plum-member2" x1="0" y1="0" x2="1" y2="1">
      <stop offset="0" stop-color="#3b0826"/>
      <stop offset="1" stop-color="#78134c"/>
    </linearGradient>
    <linearGradient id="glass-member2" x1="0" y1="0" x2="1" y2="1">
      <stop offset="0" stop-color="#ffffff" stop-opacity="0.92"/>
      <stop offset="1" stop-color="#ffffff" stop-opacity="0.54"/>
    </linearGradient>
    <radialGradient id="glow-member2" cx="50%" cy="45%" r="70%">
      <stop offset="0" stop-color="#ffcf4a" stop-opacity="0.42"/>
      <stop offset="0.48" stop-color="#f2386b" stop-opacity="0.16"/>
      <stop offset="1" stop-color="#ffffff" stop-opacity="0"/>
    </radialGradient>
    <filter id="shadow-member2" x="-20%" y="-20%" width="140%" height="150%">
      <feDropShadow dx="0" dy="28" stdDeviation="34" flood-color="#3b0826" flood-opacity="0.18"/>
    </filter>
    <filter id="softshadow-member2" x="-20%" y="-20%" width="140%" height="150%">
      <feDropShadow dx="0" dy="14" stdDeviation="20" flood-color="#3b0826" flood-opacity="0.12"/>
    </filter>
    <pattern id="dots-member2" width="44" height="44" patternUnits="userSpaceOnUse">
      <circle cx="2" cy="2" r="2" fill="#c90058" opacity="0.08"/>
    </pattern>
    <pattern id="grid-member2" width="80" height="80" patternUnits="userSpaceOnUse">
      <path d="M80 0H0v80" fill="none" stroke="#3b0826" stroke-opacity="0.055" stroke-width="1"/>
    </pattern>
    <clipPath id="round-member2"><rect x="0" y="0" width="1600" height="1000" rx="54"/></clipPath>
  </defs>
  <g clip-path="url(#round-member2)">
  
  <rect width="1600" height="1000" rx="54" fill="url(#bg-member2)"/>
  <rect width="1600" height="1000" rx="54" fill="url(#grid-member2)" opacity=".55"/>
  <circle cx="1310" cy="130" r="360" fill="url(#glow-member2)"/>
  <circle cx="120" cy="880" r="360" fill="#c90058" opacity=".055"/>
  <path d="M-80 230 C 160 70, 480 40, 760 122 C 980 186, 1110 340, 1660 214" fill="none" stroke="url(#brand-member2)" stroke-width="36" stroke-linecap="round" opacity=".16"/>
  <path d="M1060 -50 C 1170 185, 1350 210, 1524 92 C 1666 -4, 1728 228, 1530 344 C 1322 466, 1176 385, 1032 160" fill="none" stroke="url(#brand-member2)" stroke-width="50" stroke-linecap="round" opacity=".20"/>

  
      <g filter="url(#shadow-member2)"><rect x="220" y="150" width="1160" height="700" rx="64" fill="url(#glass-member2)" stroke="#fff"/></g>
      <circle cx="800" cy="430" r="220" fill="url(#brand-member2)" opacity=".18"/>
      
    <g filter="url(#softshadow-member2)">
      <path d="M711.6 561.0 C 664.0 612.0, 643.6 669.8, 650.4 731.0" fill="none" stroke="#ffd1b8" stroke-width="28.9" stroke-linecap="round" opacity=".95"/>
      <path d="M670.8 761.5999999999999 C 704.8 581.4, 738.8 513.4, 813.6 489.6 C 902.0 513.4, 939.4 588.2, 970.0 761.5999999999999 Z" fill="#ff8a00"/>
      <path d="M718.4 605.2 C 769.4 656.2, 857.8 656.2, 908.8 605.2" fill="none" stroke="#ffffff" stroke-width="11.9" stroke-linecap="round" opacity=".74"/>
      <circle cx="806.8" cy="416.5" r="78.2" fill="#ffd1b8"/>
      <path d="M725.2 421.6 C 704.8 323.0, 776.2 268.6, 871.4 295.8 C 932.6 316.2, 936.0 401.2, 898.6 462.4 C 871.4 416.5, 847.6 377.4, 796.6 384.2 C 762.6 387.6, 745.6 411.4, 725.2 421.6 Z" fill="#6a173f"/>
      <circle cx="779.6" cy="421.6" r="6.8" fill="#3b0826" opacity=".65"/>
      <circle cx="847.6" cy="421.6" r="6.8" fill="#3b0826" opacity=".65"/>
      <path d="M793.2 467.5 C 820.4 486.2, 851.0 479.4, 871.4 459.0" fill="none" stroke="#9b214c" stroke-width="8.5" stroke-linecap="round" opacity=".55"/>
    </g>
      <g filter="url(#softshadow-member2)"><rect x="510" y="726" width="580" height="92" rx="46" fill="#ffffff" stroke="#eadde4"/><text x="800" y="785" text-anchor="middle" fill="#3b0826" opacity="1" style="font-family:Inter,Segoe UI,Arial,sans-serif;font-weight:900;font-size:34px;letter-spacing:-1.2px;">Espacio para fotografía real</text></g>
    
  </g>
</svg>
