<svg xmlns="http://www.w3.org/2000/svg" viewBox="0 0 1200 800" role="img" aria-labelledby="title desc">
<title id="title">Servicio de subvenciones</title>
<desc id="desc">Ilustración original creada para la web de AME Ourense.</desc>
<defs>
  <linearGradient id="g1" x1="0" y1="0" x2="1" y2="1"><stop offset="0" stop-color="#c90058"/><stop offset="0.55" stop-color="#f04a2a"/><stop offset="1" stop-color="#ffb000"/></linearGradient>
  <linearGradient id="g2" x1="1" y1="0" x2="0" y2="1"><stop offset="0" stop-color="#fff4e8"/><stop offset="1" stop-color="#ffe7f1"/></linearGradient>
  <linearGradient id="g3" x1="0" y1="1" x2="1" y2="0"><stop offset="0" stop-color="#4b0d33"/><stop offset="1" stop-color="#8b1151"/></linearGradient>
  <filter id="shadow" x="-20%" y="-20%" width="140%" height="150%"><feDropShadow dx="0" dy="28" stdDeviation="26" flood-color="#3b0826" flood-opacity="0.16"/></filter>
  <filter id="soft" x="-20%" y="-20%" width="140%" height="140%"><feGaussianBlur stdDeviation="26"/></filter>
</defs>
<rect width="1200" height="800" rx="48" fill="#fff8f4"/>
<circle cx="1040" cy="130" r="230" fill="#ffd36b" opacity=".35" filter="url(#soft)"/>
<circle cx="120" cy="700" r="260" fill="#c90058" opacity=".12" filter="url(#soft)"/>
<path d="M40 610 C230 535, 380 735, 600 625 S970 520, 1160 625 L1160 800 L40 800 Z" fill="url(#g2)"/>

<g filter="url(#shadow)">
  <rect x="170" y="125" width="420" height="540" rx="34" fill="#fff"/>
  <path d="M500 125 v132 h90" fill="#fff4f8"/>
  <path d="M500 125 v132 h90" fill="none" stroke="#ecd5df" stroke-width="4"/>
  <rect x="225" y="205" width="190" height="22" rx="11" fill="#c90058" opacity=".18"/>
  <rect x="225" y="275" width="295" height="18" rx="9" fill="#4b0d33" opacity=".12"/>
  <rect x="225" y="323" width="250" height="18" rx="9" fill="#4b0d33" opacity=".11"/>
  <rect x="225" y="371" width="300" height="18" rx="9" fill="#4b0d33" opacity=".1"/>
  <g transform="translate(240 455)">
    <circle cx="0" cy="0" r="27" fill="#0f8a61" opacity=".14"/>
    <path d="M-13 1 l10 10 l20 -24" fill="none" stroke="#0f8a61" stroke-width="8" stroke-linecap="round" stroke-linejoin="round"/>
    <rect x="55" y="-12" width="205" height="18" rx="9" fill="#4b0d33" opacity=".12"/>
  </g>
  <g transform="translate(240 525)">
    <circle cx="0" cy="0" r="27" fill="#0f8a61" opacity=".14"/>
    <path d="M-13 1 l10 10 l20 -24" fill="none" stroke="#0f8a61" stroke-width="8" stroke-linecap="round" stroke-linejoin="round"/>
    <rect x="55" y="-12" width="245" height="18" rx="9" fill="#4b0d33" opacity=".12"/>
  </g>
</g>
<g filter="url(#shadow)">
  <circle cx="790" cy="410" r="150" fill="url(#g1)"/>
  <circle cx="790" cy="410" r="102" fill="#fff" opacity=".95"/>
  <text x="790" y="452" text-anchor="middle" font-size="132" font-family="Georgia, serif" fill="#4b0d33" font-weight="700">€</text>
</g>
<g opacity=".92" filter="url(#shadow)">
  <ellipse cx="920" cy="595" rx="95" ry="34" fill="#ffb000"/>
  <ellipse cx="920" cy="565" rx="95" ry="34" fill="#ffd36b"/>
  <ellipse cx="910" cy="525" rx="80" ry="30" fill="#f04a2a"/>
  <ellipse cx="910" cy="500" rx="80" ry="30" fill="#ffb000"/>
</g>
<path d="M690 210 C760 150 915 180 965 265" fill="none" stroke="#c90058" stroke-width="14" stroke-linecap="round" stroke-dasharray="2 30"/>

</svg>