<svg xmlns="http://www.w3.org/2000/svg" viewBox="0 0 1200 800" role="img" aria-labelledby="title desc">
<title id="title">Servicio de community manager</title>
<desc id="desc">Ilustración original creada para la web de AME Ourense.</desc>
<defs>
  <linearGradient id="g1" x1="0" y1="0" x2="1" y2="1"><stop offset="0" stop-color="#c90058"/><stop offset="0.55" stop-color="#f04a2a"/><stop offset="1" stop-color="#ffb000"/></linearGradient>
  <linearGradient id="g2" x1="1" y1="0" x2="0" y2="1"><stop offset="0" stop-color="#fff4e8"/><stop offset="1" stop-color="#ffe7f1"/></linearGradient>
  <linearGradient id="g3" x1="0" y1="1" x2="1" y2="0"><stop offset="0" stop-color="#4b0d33"/><stop offset="1" stop-color="#8b1151"/></linearGradient>
  <filter id="shadow" x="-20%" y="-20%" width="140%" height="150%"><feDropShadow dx="0" dy="28" stdDeviation="26" flood-color="#3b0826" flood-opacity="0.16"/></filter>
  <filter id="soft" x="-20%" y="-20%" width="140%" height="140%"><feGaussianBlur stdDeviation="26"/></filter>
</defs>
<rect width="1200" height="800" rx="48" fill="#fff8f4"/>
<circle cx="1040" cy="130" r="230" fill="#ffd36b" opacity=".35" filter="url(#soft)"/>
<circle cx="120" cy="700" r="260" fill="#c90058" opacity=".12" filter="url(#soft)"/>
<path d="M40 610 C230 535, 380 735, 600 625 S970 520, 1160 625 L1160 800 L40 800 Z" fill="url(#g2)"/>

<g filter="url(#shadow)">
  <rect x="150" y="150" width="520" height="420" rx="34" fill="#fff"/>
  <rect x="195" y="205" width="430" height="245" rx="26" fill="#fff4f8" stroke="#f0dce6"/>
  <rect x="225" y="235" width="170" height="22" rx="11" fill="#c90058" opacity=".16"/>
  <rect x="225" y="282" width="345" height="18" rx="9" fill="#4b0d33" opacity=".12"/>
  <rect x="225" y="322" width="290" height="18" rx="9" fill="#4b0d33" opacity=".1"/>
  <rect x="225" y="368" width="110" height="42" rx="21" fill="url(#g1)"/>
  <circle cx="540" cy="248" r="46" fill="#fff" stroke="#ffd0e1" stroke-width="5"/>
  <path d="M518 248 c12 -24 44 -15 44 9 c0 22 -44 43 -44 43 s-44 -21 -44 -43 c0 -24 32 -33 44 -9z" transform="scale(.55) translate(510 215)" fill="#c90058"/>
  <rect x="255" y="475" width="330" height="25" rx="12" fill="#4b0d33" opacity=".18"/>
  <rect x="295" y="500" width="250" height="30" rx="15" fill="#4b0d33" opacity=".08"/>
</g>
<g filter="url(#shadow)">
  <rect x="720" y="210" width="285" height="450" rx="42" fill="#4b0d33"/>
  <rect x="750" y="250" width="225" height="350" rx="28" fill="#fff"/>
  <circle cx="862" cy="620" r="14" fill="#fff" opacity=".35"/>
  <rect x="780" y="290" width="165" height="28" rx="14" fill="#c90058" opacity=".15"/>
  <rect x="780" y="342" width="100" height="100" rx="28" fill="url(#g1)" opacity=".9"/>
  <circle cx="918" cy="392" r="42" fill="#ffb000" opacity=".85"/>
  <rect x="780" y="480" width="165" height="16" rx="8" fill="#4b0d33" opacity=".16"/>
  <rect x="780" y="516" width="132" height="16" rx="8" fill="#4b0d33" opacity=".12"/>
</g>
<g opacity=".95">
  <circle cx="775" cy="140" r="48" fill="#fff" stroke="#ffd4e2" stroke-width="4"/>
  <path d="M752 142 h45 M774 119 v45" stroke="#c90058" stroke-width="12" stroke-linecap="round"/>
  <circle cx="1038" cy="312" r="58" fill="#fff" stroke="#ffe0aa" stroke-width="4"/>
  <path d="M1015 312 h46 M1015 333 h30 M1015 291 h31" stroke="#f04a2a" stroke-width="10" stroke-linecap="round"/>
</g>
<g transform="translate(430 330)">
  <circle cx="0" cy="0" r="78" fill="#ffd6a0"/>
  <path d="M-78 -12 c8 -83 90 -122 150 -55 c34 58 3 126 -36 156 c-18 -26 -64 -28 -95 -2 c-20 -25 -25 -62 -19 -99z" fill="#4b0d33"/>
  <rect x="-54" y="74" width="118" height="152" rx="44" fill="url(#g1)"/>
  <path d="M-48 102 c52 36 102 31 139 -3" fill="none" stroke="#fff" stroke-opacity=".65" stroke-width="10" stroke-linecap="round"/>
</g>

</svg>