<svg xmlns="http://www.w3.org/2000/svg" viewBox="0 0 1200 800" role="img" aria-labelledby="title desc">
<title id="title">Servicios AME Ourense</title>
<desc id="desc">Ilustración original creada para la web de AME Ourense.</desc>
<defs>
  <linearGradient id="g1" x1="0" y1="0" x2="1" y2="1"><stop offset="0" stop-color="#c90058"/><stop offset="0.55" stop-color="#f04a2a"/><stop offset="1" stop-color="#ffb000"/></linearGradient>
  <linearGradient id="g2" x1="1" y1="0" x2="0" y2="1"><stop offset="0" stop-color="#fff4e8"/><stop offset="1" stop-color="#ffe7f1"/></linearGradient>
  <linearGradient id="g3" x1="0" y1="1" x2="1" y2="0"><stop offset="0" stop-color="#4b0d33"/><stop offset="1" stop-color="#8b1151"/></linearGradient>
  <filter id="shadow" x="-20%" y="-20%" width="140%" height="150%"><feDropShadow dx="0" dy="28" stdDeviation="26" flood-color="#3b0826" flood-opacity="0.16"/></filter>
  <filter id="soft" x="-20%" y="-20%" width="140%" height="140%"><feGaussianBlur stdDeviation="26"/></filter>
</defs>
<rect width="1200" height="800" rx="48" fill="#fff8f4"/>
<circle cx="1040" cy="130" r="230" fill="#ffd36b" opacity=".35" filter="url(#soft)"/>
<circle cx="120" cy="700" r="260" fill="#c90058" opacity=".12" filter="url(#soft)"/>
<path d="M40 610 C230 535, 380 735, 600 625 S970 520, 1160 625 L1160 800 L40 800 Z" fill="url(#g2)"/>

<g filter="url(#shadow)">
  <rect x="115" y="145" width="970" height="500" rx="48" fill="#fff"/>
  <rect x="165" y="205" width="880" height="110" rx="34" fill="url(#g2)"/>
  <rect x="210" y="245" width="240" height="28" rx="14" fill="#c90058" opacity=".18"/>
  <rect x="210" y="290" width="520" height="18" rx="9" fill="#4b0d33" opacity=".1"/>
  <g transform="translate(210 380)">
    <rect width="175" height="175" rx="34" fill="#fff8f4" stroke="#eed8e2"/>
    <circle cx="88" cy="64" r="36" fill="url(#g1)"/>
    <path d="M55 125 h66 M55 147 h92" stroke="#4b0d33" stroke-opacity=".16" stroke-width="13" stroke-linecap="round"/>
  </g>
  <g transform="translate(425 380)">
    <rect width="175" height="175" rx="34" fill="#fff8f4" stroke="#eed8e2"/>
    <circle cx="88" cy="85" r="52" fill="#fff" stroke="#ffd0e1" stroke-width="6"/>
    <text x="88" y="108" text-anchor="middle" font-size="70" font-family="Georgia, serif" fill="#c90058" font-weight="700">€</text>
  </g>
  <g transform="translate(640 380)">
    <rect width="175" height="175" rx="34" fill="#fff8f4" stroke="#eed8e2"/>
    <path d="M40 120 C68 70 96 98 135 46" fill="none" stroke="url(#g1)" stroke-width="13" stroke-linecap="round"/>
    <circle cx="135" cy="46" r="13" fill="#ffb000"/>
  </g>
  <g transform="translate(855 380)">
    <rect width="175" height="175" rx="34" fill="#fff8f4" stroke="#eed8e2"/>
    <rect x="45" y="42" width="85" height="105" rx="17" fill="url(#g1)"/>
    <path d="M70 73 h35 M70 101 h35 M70 129 h28" stroke="#fff" stroke-opacity=".75" stroke-width="9" stroke-linecap="round"/>
  </g>
</g>
<path d="M160 120 C350 45 582 62 718 126 S942 218 1110 128" fill="none" stroke="url(#g1)" stroke-width="18" stroke-linecap="round" opacity=".55"/>

</svg>